<svg width="85" height="84" viewBox="0 0 85 84" fill="none" xmlns="http://www.w3.org/2000/svg">
<g clip-path="url(#clip0_4_74)">
<path d="M69.2536 33.8819L53.784 30.1903L58.5505 10.7929C59.1815 8.22498 61.8069 6.64756 64.4144 7.2699L70.4413 8.70801C73.0488 9.33019 74.6511 11.9165 74.02 14.4844L69.2536 33.8819Z" fill="white"/>
<path d="M15.8127 33.3782L31.3492 29.9789L26.9494 10.495C26.367 7.9156 23.7718 6.28896 21.153 6.86201L15.0999 8.18638C12.4812 8.75927 10.8304 11.3149 11.4129 13.8943L15.8127 33.3782Z" fill="white"/>
<path d="M49.0751 5.98726L36.5136 5.86881L37.8164 0.932011L47.8656 1.02677L49.0751 5.98726Z" fill="white"/>
<path d="M37.6769 15.777L32.6528 15.7297L32.7475 5.68741C32.7724 3.0348 34.9759 0.905107 37.6691 0.930504L37.8169 0.931898L37.6769 15.777Z" fill="white"/>
<path d="M52.7494 15.9194L47.7253 15.872L47.8653 1.02686L48.0131 1.02825C50.7064 1.05365 52.8693 3.22451 52.8443 5.87712L52.7496 15.9194L52.7494 15.9194Z" fill="white"/>
<path d="M71.428 33.3384L71.1473 63.1065L13.3682 62.5616L13.6489 32.7935C13.6666 30.9188 13.9489 29.1075 14.4621 27.3952L21.4368 23.9249L27.7704 14.1338C29.3331 13.6589 30.9758 13.3687 32.675 13.2895L32.6766 13.2895L35.4413 14.3245L37.6998 13.3024L51.5957 13.4335C62.6508 13.5376 71.5307 22.4501 71.428 33.3384Z" fill="#FEA301"/>
<path d="M41.3465 13.3368C38.1052 14.9035 30.2797 19.7903 30.1787 30.4962L29.8749 62.7174L13.3682 62.5618L13.6489 32.7937C13.7515 21.9054 22.7979 13.1619 33.8531 13.2662L41.3465 13.3368Z" fill="#FEA301"/>
<path d="M73.6831 60.6363L73.5659 73.0656C73.5145 78.5105 68.9905 82.8814 63.4638 82.8293L20.6783 82.4258C15.1517 82.3737 10.7109 77.9183 10.7622 72.4734L10.8795 60.044C10.8935 58.5504 11.5818 57.2179 12.6562 56.3258C13.539 55.5899 14.6842 55.1504 15.9305 55.1622L68.7252 55.66C71.4875 55.6861 73.7087 57.9138 73.6831 60.6363Z" fill="#FEA301"/>
<path d="M29.8267 82.5122L20.6783 82.426C15.1505 82.3738 10.7109 77.9179 10.7622 72.4735L10.8795 60.0442C10.8935 58.5506 11.5818 57.2181 12.6562 56.326L25.1422 62.673L25.0237 75.2371C24.9942 78.3686 26.7115 81.1791 29.8267 82.5122Z" fill="#FEA301"/>
<path d="M61.1001 75.3836C57.9101 75.3535 55.5972 72.3787 56.3996 69.3379L58.7279 60.5148L63.752 60.5621L65.9135 69.4276C66.6587 72.483 64.2901 75.4137 61.1001 75.3836Z" fill="#495560"/>
<path d="M77.4497 60.701C77.4433 61.3813 77.1572 61.9947 76.7009 62.4356C76.2446 62.8782 75.6148 63.1483 74.9242 63.1418L25.1422 62.6724L20.4421 61.841L20.5275 52.7798L29.9916 50.3468L67.4856 50.7004C73.0406 50.7528 77.5013 55.2297 77.4497 60.701Z" fill="white"/>
<path d="M23.3713 59.7443C23.3591 61.0439 24.0375 61.9918 25.1422 62.6727L9.59141 62.526C8.20853 62.513 7.09948 61.3983 7.11231 60.0378C7.13811 57.3023 8.28755 54.8368 10.1243 53.0614C11.9613 51.286 14.4856 50.2007 17.2632 50.2269L29.9914 50.3469C29.9916 50.3471 23.4357 52.9192 23.3713 59.7443Z" fill="white"/>
<path d="M47.6921 28.2435L37.4769 28.1472C36.1356 28.1346 35.0583 27.0533 35.0708 25.7323L35.0957 23.0937C35.1081 21.7727 36.2056 20.7119 37.5469 20.7246L47.7621 20.8209C49.1033 20.8335 50.1806 21.9148 50.1682 23.2358L50.1433 25.8744C50.1308 27.1954 49.0333 28.2562 47.6921 28.2435Z" fill="#68A2DF"/>
<path d="M28.9485 44.5855C31.6955 44.6114 33.9389 42.8857 33.9592 40.7311C33.9796 38.5765 31.7691 36.8089 29.0221 36.783C26.2751 36.7571 24.0317 38.4827 24.0114 40.6373C23.9911 42.7919 26.2015 44.5596 28.9485 44.5855Z" fill="white"/>
<path d="M55.9087 44.8396C58.6558 44.8655 60.8991 43.1399 60.9195 40.9853C60.9398 38.8307 58.7293 37.063 55.9823 37.0371C53.2353 37.0112 50.9919 38.7369 50.9716 40.8915C50.9513 43.0461 53.1617 44.8137 55.9087 44.8396Z" fill="white"/>
<path d="M47.3326 36.1601C46.6415 36.1536 46.0763 36.7001 46.0699 37.3805C46.0639 38.0106 45.5385 38.5184 44.8988 38.5124C44.259 38.5063 43.7434 37.9887 43.7493 37.3587C43.7558 36.678 43.2008 36.1212 42.5099 36.1146C41.819 36.1081 41.2536 36.6546 41.2472 37.3351C41.2412 37.9651 40.7158 38.4729 40.0761 38.4669C39.4364 38.4608 38.9207 37.9432 38.9266 37.3132C38.9331 36.6326 38.378 36.0757 37.6872 36.0692C36.9963 36.0627 36.4309 36.6091 36.4245 37.2896C36.4057 39.2786 38.0335 40.9123 40.053 40.9313C40.9761 40.94 41.8229 40.6093 42.473 40.0585C43.1125 40.6214 43.953 40.9681 44.8761 40.9768C46.8956 40.9958 48.5539 39.393 48.5727 37.4041C48.5786 36.7235 48.0236 36.1666 47.3326 36.1601Z" fill="#495560"/>
<path d="M34.5379 36.563C33.8469 36.5565 33.292 35.9995 33.2984 35.319C33.3038 34.7515 32.8392 34.2852 32.263 34.2798C31.6867 34.2743 31.2135 34.7318 31.2081 35.2993C31.2017 35.9799 30.6363 36.5262 29.9454 36.5197C29.2546 36.5132 28.6995 35.9562 28.706 35.2757C28.7241 33.3492 30.3303 31.7967 32.2864 31.8152C34.2424 31.8336 35.8191 33.4161 35.8009 35.3426C35.7944 36.0231 35.2289 36.5695 34.5379 36.563Z" fill="#495560"/>
<path d="M55.0641 36.7564C54.3731 36.7499 53.8182 36.1928 53.8246 35.5124C53.83 34.9448 53.3654 34.4786 52.7892 34.4731C52.2129 34.4677 51.7397 34.9251 51.7343 35.4927C51.7279 36.1733 51.1625 36.7196 50.4716 36.7131C49.7806 36.7066 49.2257 36.1495 49.2322 35.4691C49.2503 33.5425 50.8565 31.9901 52.8126 32.0085C54.7686 32.027 56.3453 33.6094 56.3271 35.536C56.3204 36.2164 55.7551 36.7629 55.0641 36.7564Z" fill="#495560"/>
</g>
<defs>
<clipPath id="clip0_4_74">
<rect width="82.9025" height="81.6518" fill="white" transform="translate(1.39163 0.588867) rotate(0.540274)"/>
</clipPath>
</defs>
</svg>
